<?xml version="1.0" standalone="no"?>
<!DOCTYPE svg PUBLIC "-//W3C//DTD SVG 20010904//EN"
 "http://www.w3.org/TR/2001/REC-SVG-20010904/DTD/svg10.dtd">
<svg version="1.0" xmlns="http://www.w3.org/2000/svg"
 width="512.000000pt" height="512.000000pt" viewBox="0 0 512.000000 512.000000"
 preserveAspectRatio="xMidYMid meet">
<metadata>
Created by potrace 1.14, written by Peter Selinger 2001-2017
</metadata>
<g transform="translate(0.000000,512.000000) scale(0.100000,-0.100000)"
fill="#000000" stroke="none">
<path d="M2507 4285 c-1 -1 -74 -6 -162 -9 -197 -9 -404 -30 -519 -52 -168
-32 -247 -49 -330 -70 -55 -14 -107 -27 -115 -29 -9 -2 -70 -21 -136 -43 -487
-161 -858 -396 -1072 -681 -61 -80 -130 -223 -153 -316 -18 -70 -20 -110 -19
-320 1 -264 7 -324 45 -435 85 -248 274 -424 543 -504 60 -18 278 -61 356 -71
168 -20 404 -21 605 0 35 3 82 8 105 10 56 6 102 -9 171 -53 46 -30 191 -152
280 -237 6 -5 37 -32 69 -60 32 -27 67 -60 79 -72 40 -41 158 -133 244 -189
48 -32 99 -65 113 -75 14 -9 77 -42 140 -72 164 -79 333 -127 499 -143 41 -3
77 -8 80 -10 27 -15 401 -22 551 -10 255 21 469 90 658 214 256 169 454 438
531 726 40 150 46 234 48 676 2 495 -4 541 -87 720 -127 276 -407 539 -776
728 -286 147 -651 265 -985 317 -19 3 -60 10 -90 15 -82 14 -342 37 -450 40
-52 1 -123 3 -158 4 -34 1 -63 1 -65 1z"/>
</g>
</svg>
